<svg width="24" height="24" viewBox="0 0 24 24" fill="none" xmlns="http://www.w3.org/2000/svg">
    <path fill-rule="evenodd" clip-rule="evenodd"
          d="M11.0263 4.07018C11.3455 4.0231 11.6731 4 11.9986 4C13.1862 4 14.3732 4.30216 15.4233 4.88531C16.7545 5.62126 17.8122 6.79469 18.4196 8.18732L18.433 8.19131C19.5783 8.53112 20.5637 9.28284 21.2101 10.2898C21.8601 11.3022 22.1233 12.5157 21.9479 13.7058C21.7736 14.8884 21.1873 15.9771 20.2719 16.7671C19.8325 17.1463 19.3599 17.4331 19.0097 17.6217C18.8318 17.7175 18.679 17.7914 18.5684 17.8423C18.513 17.8678 18.4679 17.8877 18.4351 17.9018L18.3954 17.9187L18.3829 17.9238L18.3786 17.9256L18.3759 17.9267C18.3757 17.9268 18.3756 17.9268 18.0001 17L18.3759 17.9267C17.864 18.1341 17.2806 17.8874 17.0732 17.3755C16.8661 16.8644 17.112 16.2822 17.6224 16.0741C17.6227 16.074 17.6222 16.0741 17.6224 16.0741C17.6227 16.0739 17.6237 16.0735 17.624 16.0734C17.6241 16.0734 17.6238 16.0735 17.624 16.0734L17.6251 16.073L17.6442 16.0648C17.6629 16.0568 17.6929 16.0436 17.7322 16.0255C17.811 15.9892 17.9259 15.9338 18.0615 15.8608C18.3381 15.7119 18.6747 15.5037 18.9653 15.2529C19.5099 14.7829 19.8636 14.1316 19.9693 13.4142C20.0739 12.7043 19.9171 11.9778 19.5271 11.3702C19.1359 10.7609 18.5461 10.3144 17.8765 10.1124L16.9777 9.8727L16.591 8.99762C16.1575 7.99721 15.3985 7.15668 14.4549 6.63524L14.453 6.63416C13.7033 6.21766 12.8507 6 11.9986 6C11.7655 6 11.5345 6.0167 11.3151 6.0492L11.3068 6.05044C10.2385 6.19951 9.21847 6.71597 8.44952 7.49327L8.44572 7.49712C7.68715 8.25568 7.1925 9.28042 7.0501 10.3601C7.05007 10.3603 7.05012 10.36 7.0501 10.3601L6.87108 11.7326L5.53087 12.0527L5.52839 12.0532C5.05354 12.1654 4.64081 12.4492 4.35783 12.8535C4.08357 13.2453 3.95916 13.7382 4.01192 14.2343C4.07363 14.7217 4.3074 15.1669 4.67381 15.4933C5.03438 15.8146 5.50538 15.99 5.9986 15.99H6.00775C6.56003 15.99 7.0086 16.4377 7.0086 16.99C7.0086 17.5423 6.56088 17.99 6.0086 17.99H5.99947C5.03269 17.99 4.08282 17.6454 3.34339 16.9867C2.61148 16.3346 2.14571 15.4424 2.02611 14.4724L2.02446 14.4589C1.91907 13.4973 2.15487 12.513 2.71937 11.7065C3.27588 10.9115 4.10213 10.3357 5.06612 10.1074L5.06717 10.0993C5.26474 8.60014 5.94937 7.16591 7.02957 6.08481C8.09942 5.00417 9.517 4.28173 11.0263 4.07018Z"
          fill="#CCCCCC"/>
    <path d="M12.56 13.609C12.3946 13.4972 12.1996 13.4375 12 13.4375C11.8004 13.4375 11.6054 13.4972 11.44 13.609C11.33 13.689 8.75 15.469 8.75 18.189C8.75 19.051 9.09241 19.8776 9.7019 20.4871C10.3114 21.0966 11.138 21.439 12 21.439C12.862 21.439 13.6886 21.0966 14.2981 20.4871C14.9076 19.8776 15.25 19.051 15.25 18.189C15.25 15.439 12.67 13.679 12.56 13.609ZM12 19.439C11.6685 19.439 11.3505 19.3073 11.1161 19.0729C10.8817 18.8385 10.75 18.5205 10.75 18.189C10.8323 17.2409 11.2807 16.3621 12 15.739C12.7236 16.3587 13.173 17.2394 13.25 18.189C13.25 18.5205 13.1183 18.8385 12.8839 19.0729C12.6495 19.3073 12.3315 19.439 12 19.439Z"
          fill="#66AADC"/>
</svg>
