<svg width="65" height="65" viewBox="0 0 65 65" fill="none" xmlns="http://www.w3.org/2000/svg">
<path d="M33 44.8999V51.6999" stroke="#fff" stroke-width="2" stroke-miterlimit="10"/>
<path d="M30.6 32.4001C30.6 30.6001 29.1 29.1001 27.3 29.1001C25.5 29.1001 24 30.6001 24 32.4001C24 34.2001 25.5 35.7001 27.3 35.7001C29.1 35.7001 30.6 34.2001 30.6 32.4001ZM27.3 33.6001C26.7 33.6001 26.1 33.1001 26.1 32.4001C26.1 31.7001 26.6 31.2001 27.3 31.2001C27.9 31.2001 28.5 31.7001 28.5 32.4001C28.5 33.1001 28 33.6001 27.3 33.6001Z" fill="#fff"/>
<path d="M38.5998 29.1001C36.7998 29.1001 35.2998 30.6001 35.2998 32.4001C35.2998 34.2001 36.7998 35.7001 38.5998 35.7001C40.3998 35.7001 41.8998 34.2001 41.8998 32.4001C41.8998 30.6001 40.3998 29.1001 38.5998 29.1001ZM38.5998 33.6001C37.9998 33.6001 37.3998 33.1001 37.3998 32.4001C37.3998 31.7001 37.8998 31.2001 38.5998 31.2001C39.1998 31.2001 39.7998 31.7001 39.7998 32.4001C39.7998 33.1001 39.2998 33.6001 38.5998 33.6001Z" fill="#fff"/>
<path d="M52 15.2001C51.8 15.0001 51.5 14.6001 51.2 14.6001H36.0999C35.0999 14.6001 34.1 14.4001 33 14.6001C31.9 14.4001 30.8999 14.6001 29.8999 14.6001H14.7999C14.4999 14.6001 14.2 15.0001 14 15.2001C10.7 18.5001 6.49994 26.8001 7.29994 31.9001C7.59994 33.7001 8.49995 35.2001 9.89995 35.9001C10.8999 36.4001 11.8999 36.7001 12.7999 36.7001C14.3999 36.7001 15.6999 35.9001 16.7999 34.7001C17.5999 46.8001 22.9999 52.9001 32.8999 52.9001C42.7999 52.9001 48.2 46.7001 49 34.6001C50.2 35.9001 51.4999 36.7001 53.0999 36.7001C53.9999 36.7001 55 36.4001 56 35.9001C57.4 35.1001 58.2999 33.6001 58.5999 31.8001C59.4999 26.8001 55.2 18.6001 52 15.2001ZM12.8999 34.7001C12.2999 34.7001 11.7 34.5001 11 34.2001C10.2 33.8001 9.69995 32.7001 9.49995 31.5001C8.89995 27.6001 12.0999 21.1001 15.2999 16.8001H25.5C22.7 18.9001 20.7999 23.2001 19.0999 26.7001C18.4999 27.9001 18 29.2001 17.5 30.2001C17.1 30.4001 16.8999 30.9001 16.8999 31.3001V31.4001C16.8999 33.4001 14.3999 34.7001 12.8999 34.7001ZM33 50.9001C23.6 50.9001 19.0999 44.9001 18.8999 32.0001C19.5999 30.8001 20.3 29.1001 21 27.7001C23.4 22.9001 25.7999 16.8001 30.0999 16.8001H32.8999H35.6999C40 16.8001 42.3999 22.9001 44.7999 27.7001C45.4999 29.1001 46.0999 30.5001 46.7999 31.7001C46.8999 44.7001 42.4 50.9001 33 50.9001ZM56.5 31.5001C56.3 32.7001 55.8 33.6001 55 34.0001C54.3 34.4001 53.6999 34.6001 53.0999 34.6001C51.5999 34.6001 50.2999 33.2001 49.0999 31.2001C49.0999 30.8001 48.8999 30.5001 48.5999 30.4001C47.9999 29.3001 47.3999 27.9001 46.7999 26.7001C45.0999 23.2001 43.1999 18.9001 40.3999 16.8001H50.5999C53.8999 21.1001 57.2 27.6001 56.5 31.5001Z" fill="#fff"/>
<path d="M32.2 44.7002H33.8C35.5 44.5002 36.9 43.1002 36.9 41.3002V40.9002C36.9 40.3002 36.4 39.7002 35.7 39.7002H30.2C29.6 39.7002 29 40.2002 29 40.9002V41.3002C29.1 43.1002 30.5 44.5002 32.2 44.7002Z" stroke="#fff" stroke-width="2" stroke-miterlimit="10"/>
</svg>
