<svg xmlns="http://www.w3.org/2000/svg" version="1.1" xmlns:xlink="http://www.w3.org/1999/xlink" width="152" height="38" viewBox="0 0 152 38" fill="none"><path d="M3.45017 22.4736C2.93337 22.4736 2.43177 22.4097 1.94537 22.2821C1.45897 22.1544 1.06377 21.9841 0.759766 21.7713L1.35257 20.4398C1.63833 20.6283 1.96969 20.7803 2.34665 20.8958C2.72361 21.0113 3.09449 21.0691 3.45929 21.0691C4.15241 21.0691 4.49897 20.8958 4.49897 20.5493C4.49897 20.3669 4.39865 20.2331 4.19801 20.148C4.00345 20.0568 3.68729 19.9625 3.24953 19.8653C2.76921 19.7619 2.36793 19.6525 2.04569 19.5369C1.72345 19.4153 1.44681 19.2238 1.21577 18.9624C0.984726 18.7009 0.869206 18.3483 0.869206 17.9045C0.869206 17.5153 0.975607 17.1657 1.18841 16.8557C1.40121 16.5395 1.71737 16.2902 2.13689 16.1078C2.56249 15.9254 3.08233 15.8342 3.69641 15.8342C4.11593 15.8342 4.52937 15.8829 4.93673 15.9801C5.34409 16.0713 5.70281 16.2081 6.01289 16.3905L5.45657 17.7312C4.84857 17.4029 4.25881 17.2387 3.68729 17.2387C3.32857 17.2387 3.06713 17.2934 2.90297 17.4029C2.73881 17.5062 2.65673 17.643 2.65673 17.8133C2.65673 17.9835 2.75401 18.1112 2.94857 18.1963C3.14313 18.2814 3.45625 18.3696 3.88793 18.4608C4.37433 18.5641 4.77561 18.6766 5.09177 18.7982C5.41401 18.9137 5.69065 19.1022 5.92169 19.3637C6.15881 19.619 6.27737 19.9686 6.27737 20.4125C6.27737 20.7955 6.17097 21.1421 5.95817 21.4521C5.74537 21.7622 5.42617 22.0115 5.00057 22.2C4.57497 22.3824 4.05817 22.4736 3.45017 22.4736ZM14.0975 15.9619V22.3459H12.2917V19.8561H9.8293V22.3459H8.02354V15.9619H9.8293V18.3605H12.2917V15.9619H14.0975ZM18.7455 20.0294L18.0706 20.7499V22.3459H16.2831V15.9619H18.0706V18.6158L20.5421 15.9619H22.5303L19.922 18.7891L22.6671 22.3459H20.5695L18.7455 20.0294ZM26.9097 22.4736C25.9612 22.4736 25.2225 22.2152 24.6935 21.6984C24.1707 21.1816 23.9092 20.4489 23.9092 19.5005V15.9619H25.715V19.4457C25.715 20.4672 26.1193 20.9779 26.9279 20.9779C27.7305 20.9779 28.1318 20.4672 28.1318 19.4457V15.9619H29.9102V19.5005C29.9102 20.4489 29.6457 21.1816 29.1167 21.6984C28.5939 22.2152 27.8582 22.4736 26.9097 22.4736ZM32.0455 15.9619H33.8512V20.9141H36.8973V22.3459H32.0455V15.9619ZM43.6493 20.9505V22.3459H38.5239V15.9619H43.5307V17.3573H40.3114V18.4334H43.1477V19.7832H40.3114V20.9505H43.6493ZM51.9494 15.9619L49.2134 22.3459H47.435L44.7081 15.9619H46.6598L48.3926 20.1206L50.1619 15.9619H51.9494Z" fill="#FFFFFF"></path><path d="M63.9662 15.9619V22.3459H63.3187V17.2387L60.8107 21.5343H60.4915L57.9835 17.2661V22.3459H57.3359V15.9619H57.8923L60.6647 20.6952L63.4099 15.9619H63.9662ZM71.4725 21.7623V22.3459H66.9581V15.9619H71.3357V16.5456H67.633V18.8165H70.9345V19.3911H67.633V21.7623H71.4725ZM73.971 15.9619H76.5702C77.2451 15.9619 77.8409 16.0987 78.3577 16.3723C78.8745 16.6399 79.2758 17.0168 79.5615 17.5032C79.8473 17.9835 79.9902 18.5338 79.9902 19.1539C79.9902 19.7741 79.8473 20.3274 79.5615 20.8138C79.2758 21.2941 78.8745 21.6711 78.3577 21.9447C77.8409 22.2122 77.2451 22.3459 76.5702 22.3459H73.971V15.9619ZM76.5337 21.7623C77.093 21.7623 77.5825 21.6528 78.002 21.4339C78.4215 21.209 78.7468 20.9019 78.9778 20.5128C79.2089 20.1176 79.3244 19.6647 79.3244 19.1539C79.3244 18.6432 79.2089 18.1933 78.9778 17.8042C78.7468 17.409 78.4215 17.1019 78.002 16.8831C77.5825 16.6581 77.093 16.5456 76.5337 16.5456H74.6458V21.7623H76.5337ZM82.4176 15.9619H83.0925V22.3459H82.4176V15.9619ZM90.0854 20.6405H86.5286L85.7625 22.3459H85.0603L87.9787 15.9619H88.6444L91.5628 22.3459H90.8515L90.0854 20.6405ZM89.8392 20.0933L88.307 16.6642L86.7748 20.0933H89.8392ZM102.165 15.9619V22.3459H101.499V19.4002H97.5047V22.3459H96.8298V15.9619H97.5047V18.8074H101.499V15.9619H102.165ZM107.951 22.4007C107.319 22.4007 106.744 22.2608 106.228 21.9811C105.717 21.6954 105.316 21.3063 105.024 20.8138C104.738 20.3213 104.595 19.768 104.595 19.1539C104.595 18.5399 104.738 17.9866 105.024 17.4941C105.316 17.0016 105.717 16.6155 106.228 16.3359C106.744 16.0501 107.319 15.9072 107.951 15.9072C108.584 15.9072 109.152 16.0471 109.657 16.3267C110.167 16.6064 110.569 16.9955 110.861 17.4941C111.152 17.9866 111.298 18.5399 111.298 19.1539C111.298 19.768 111.152 20.3243 110.861 20.8229C110.569 21.3154 110.167 21.7015 109.657 21.9811C109.152 22.2608 108.584 22.4007 107.951 22.4007ZM107.951 21.7987C108.456 21.7987 108.912 21.6863 109.319 21.4613C109.727 21.2303 110.046 20.9141 110.277 20.5128C110.508 20.1055 110.623 19.6525 110.623 19.1539C110.623 18.6554 110.508 18.2055 110.277 17.8042C110.046 17.3968 109.727 17.0807 109.319 16.8557C108.912 16.6247 108.456 16.5091 107.951 16.5091C107.447 16.5091 106.988 16.6247 106.574 16.8557C106.167 17.0807 105.845 17.3968 105.607 17.8042C105.376 18.2055 105.261 18.6554 105.261 19.1539C105.261 19.6525 105.376 20.1055 105.607 20.5128C105.845 20.9141 106.167 21.2303 106.574 21.4613C106.988 21.6863 107.447 21.7987 107.951 21.7987ZM113.723 15.9619H114.398V21.7623H117.973V22.3459H113.723V15.9619ZM120.006 15.9619H122.605C123.28 15.9619 123.876 16.0987 124.392 16.3723C124.909 16.6399 125.31 17.0168 125.596 17.5032C125.882 17.9835 126.025 18.5338 126.025 19.1539C126.025 19.7741 125.882 20.3274 125.596 20.8138C125.31 21.2941 124.909 21.6711 124.392 21.9447C123.876 22.2122 123.28 22.3459 122.605 22.3459H120.006V15.9619ZM122.568 21.7623C123.128 21.7623 123.617 21.6528 124.037 21.4339C124.456 21.209 124.782 20.9019 125.013 20.5128C125.244 20.1176 125.359 19.6647 125.359 19.1539C125.359 18.6432 125.244 18.1933 125.013 17.8042C124.782 17.409 124.456 17.1019 124.037 16.8831C123.617 16.6581 123.128 16.5456 122.568 16.5456H120.681V21.7623H122.568ZM128.452 15.9619H129.127V22.3459H128.452V15.9619ZM137.452 15.9619V22.3459H136.895L132.791 17.1658V22.3459H132.116V15.9619H132.673L136.786 21.1421V15.9619H137.452ZM144.944 19.1539H145.591V21.589C145.293 21.8504 144.941 22.0511 144.533 22.1909C144.126 22.3307 143.697 22.4007 143.247 22.4007C142.609 22.4007 142.034 22.2608 141.524 21.9811C141.013 21.7015 140.612 21.3154 140.32 20.8229C140.028 20.3243 139.882 19.768 139.882 19.1539C139.882 18.5399 140.028 17.9866 140.32 17.4941C140.612 16.9955 141.013 16.6064 141.524 16.3267C142.034 16.0471 142.612 15.9072 143.257 15.9072C143.743 15.9072 144.19 15.9863 144.597 16.1443C145.005 16.2963 145.348 16.5243 145.628 16.8283L145.208 17.257C144.704 16.7584 144.062 16.5091 143.284 16.5091C142.767 16.5091 142.299 16.6247 141.879 16.8557C141.466 17.0807 141.141 17.3968 140.904 17.8042C140.666 18.2055 140.548 18.6554 140.548 19.1539C140.548 19.6525 140.666 20.1024 140.904 20.5037C141.141 20.905 141.466 21.2211 141.879 21.4522C142.293 21.6832 142.758 21.7987 143.275 21.7987C143.931 21.7987 144.488 21.6346 144.944 21.3063V19.1539Z" fill="#FFFFFF"></path><path d="M114.192 10.0291V0.76001H151.201V37.24H114.192V27.8837" stroke="#FFFFFF"></path><path d="M1.59085 31.0079H0.984375V28.0044H3.23701V28.4954H1.59085V31.0079ZM4.63496 28.3683C4.90066 28.0873 5.25102 27.9467 5.68619 27.9467C6.12122 27.9467 6.46975 28.0873 6.73165 28.3683C6.99734 28.6494 7.13019 29.0287 7.13019 29.5062C7.13019 29.9836 6.99734 30.363 6.73165 30.644C6.46975 30.9251 6.12122 31.0657 5.68619 31.0657C5.25102 31.0657 4.90066 30.9251 4.63496 30.644C4.37306 30.363 4.24219 29.9836 4.24219 29.5062C4.24219 29.0287 4.37306 28.6494 4.63496 28.3683ZM5.06238 30.3148C5.21636 30.5074 5.42429 30.6036 5.68619 30.6036C5.94794 30.6036 6.15587 30.5074 6.31 30.3148C6.46397 30.1222 6.54104 29.8527 6.54104 29.5062C6.54104 29.1596 6.46397 28.8901 6.31 28.6975C6.15587 28.505 5.94794 28.4087 5.68619 28.4087C5.42429 28.4087 5.21636 28.505 5.06238 28.6975C4.90825 28.8901 4.83134 29.1596 4.83134 29.5062C4.83134 29.8527 4.90825 30.1222 5.06238 30.3148ZM8.91041 28.4376C9.1337 28.1104 9.44378 27.9467 9.84035 27.9467C10.2216 27.9467 10.5181 28.0795 10.7299 28.3452C10.9455 28.6071 11.0533 28.9941 11.0533 29.5062C11.0533 30.0107 10.9416 30.3977 10.7183 30.6672C10.4988 30.9328 10.2062 31.0657 9.84035 31.0657C9.45534 31.0657 9.15103 30.9213 8.92774 30.6325H8.91619V32.2787H8.33859V28.0044H8.88731L8.89886 28.4376H8.91041ZM10.4873 29.5062C10.4873 29.1403 10.418 28.867 10.2793 28.686C10.1407 28.5012 9.94629 28.4087 9.69595 28.4087C9.46871 28.4087 9.28206 28.505 9.13568 28.6975C8.9893 28.8862 8.91619 29.1461 8.91619 29.4773V29.5351C8.91619 29.8701 8.9893 30.132 9.13568 30.3206C9.28206 30.5092 9.46871 30.6036 9.69595 30.6036C9.93474 30.6036 10.1254 30.5092 10.2678 30.3206C10.4142 30.132 10.4873 29.8605 10.4873 29.5062ZM12.48 28.3683C12.7457 28.0873 13.096 27.9467 13.5312 27.9467C13.9662 27.9467 14.3148 28.0873 14.5767 28.3683C14.8424 28.6494 14.9752 29.0287 14.9752 29.5062C14.9752 29.9836 14.8424 30.363 14.5767 30.644C14.3148 30.9251 13.9662 31.0657 13.5312 31.0657C13.096 31.0657 12.7457 30.9251 12.48 30.644C12.2181 30.363 12.0872 29.9836 12.0872 29.5062C12.0872 29.0287 12.2181 28.6494 12.48 28.3683ZM12.9074 30.3148C13.0614 30.5074 13.2693 30.6036 13.5312 30.6036C13.793 30.6036 14.0009 30.5074 14.155 30.3148C14.309 30.1222 14.3861 29.8527 14.3861 29.5062C14.3861 29.1596 14.309 28.8901 14.155 28.6975C14.0009 28.505 13.793 28.4087 13.5312 28.4087C13.2693 28.4087 13.0614 28.505 12.9074 28.6975C12.7533 28.8901 12.6764 29.1596 12.6764 29.5062C12.6764 29.8527 12.7533 30.1222 12.9074 30.3148ZM16.9229 30.5459H18.2919V28.4665H17.2522C17.2522 29.2674 17.2386 29.7565 17.2117 29.9336C17.1848 30.1069 17.0885 30.311 16.9229 30.5459ZM16.2414 30.5459C16.326 30.4381 16.3858 30.363 16.4204 30.3206C16.4589 30.2744 16.4993 30.2031 16.5417 30.1069C16.5841 30.0107 16.6091 29.9374 16.6168 29.8874C16.6284 29.8374 16.6399 29.7314 16.6515 29.5697C16.6668 29.4042 16.6746 29.2558 16.6746 29.125C16.6746 28.9901 16.6746 28.7706 16.6746 28.4665V28.0044H18.8695V30.5459H19.2738V31.7011H18.6962V31.0079H16.5591V31.7011H15.9815V30.5459H16.2414ZM22.6155 28.6224C22.3652 28.4876 22.1052 28.4203 21.8357 28.4203C21.5392 28.4203 21.3063 28.5147 21.1368 28.7033C20.9674 28.8919 20.8827 29.1596 20.8827 29.5062C20.8827 29.845 20.9713 30.1127 21.1484 30.309C21.3294 30.5054 21.5585 30.6036 21.8357 30.6036C22.1052 30.6036 22.3652 30.5363 22.6155 30.4015L22.7599 30.8635C22.4518 30.9984 22.1341 31.0657 21.8069 31.0657C21.3525 31.0657 20.9829 30.9251 20.6979 30.644C20.4168 30.363 20.2762 29.9836 20.2762 29.5062C20.2762 29.0172 20.411 28.636 20.6805 28.3625C20.95 28.0853 21.3255 27.9467 21.8069 27.9467C22.1341 27.9467 22.4518 28.014 22.7599 28.1488L22.6155 28.6224ZM24.737 29.2405L25.9788 28.0044H26.7066L25.2164 29.4426L26.7586 31.0079H26.0308L24.737 29.6506H24.7254V31.0079H24.1132V28.0044H24.7254V29.2405H24.737ZM28.5968 28.0044V30.1877H28.6084L30.0871 28.0044H30.7109V31.0079H30.1102V28.8246H30.0986L28.6257 31.0079H27.9961V28.0044H28.5968ZM32.5087 29.2867H34.1318C34.128 29.0017 34.0547 28.7822 33.9123 28.6282C33.7737 28.4742 33.5811 28.3972 33.3347 28.3972C33.0883 28.3972 32.8899 28.4761 32.7398 28.634C32.5934 28.788 32.5165 29.0056 32.5087 29.2867ZM32.5087 29.7372C32.5203 30.0067 32.6127 30.2204 32.786 30.3784C32.9631 30.5363 33.1845 30.6152 33.4502 30.6152C33.739 30.6152 34.0278 30.5421 34.3166 30.3957L34.461 30.8347C34.126 30.9886 33.7699 31.0657 33.3924 31.0657C32.9612 31.0657 32.6069 30.9251 32.3297 30.644C32.0562 30.359 31.9196 29.9798 31.9196 29.5062C31.9196 29.021 32.0466 28.6398 32.3008 28.3625C32.5587 28.0853 32.9035 27.9467 33.3347 27.9467C33.7621 27.9467 34.0951 28.0775 34.3339 28.3394C34.5727 28.6013 34.692 28.9806 34.692 29.4773C34.692 29.5351 34.6882 29.6217 34.6805 29.7372H32.5087ZM38.2181 28.0044H40.8462V31.0079H40.2686V28.478H38.7957V31.0079H38.2181V28.0044ZM42.444 28.3683C42.7097 28.0873 43.0601 27.9467 43.4953 27.9467C43.9305 27.9467 44.2788 28.0873 44.5407 28.3683C44.8064 28.6494 44.9393 29.0287 44.9393 29.5062C44.9393 29.9836 44.8064 30.363 44.5407 30.644C44.2788 30.9251 43.9305 31.0657 43.4953 31.0657C43.0601 31.0657 42.7097 30.9251 42.444 30.644C42.1822 30.363 42.0513 29.9836 42.0513 29.5062C42.0513 29.0287 42.1822 28.6494 42.444 28.3683ZM42.8715 30.3148C43.0254 30.5074 43.2334 30.6036 43.4953 30.6036C43.7572 30.6036 43.9651 30.5074 44.1191 30.3148C44.2731 30.1222 44.3501 29.8527 44.3501 29.5062C44.3501 29.1596 44.2731 28.8901 44.1191 28.6975C43.9651 28.505 43.7572 28.4087 43.4953 28.4087C43.2334 28.4087 43.0254 28.505 42.8715 28.6975C42.7175 28.8901 42.6404 29.1596 42.6404 29.5062C42.6404 29.8527 42.7175 30.1222 42.8715 30.3148ZM46.7195 28.4376C46.9429 28.1104 47.2529 27.9467 47.6494 27.9467C48.0307 27.9467 48.3272 28.0795 48.5389 28.3452C48.7546 28.6071 48.8624 28.9941 48.8624 29.5062C48.8624 30.0107 48.7508 30.3977 48.5274 30.6672C48.3079 30.9328 48.0153 31.0657 47.6494 31.0657C47.2644 31.0657 46.9603 30.9213 46.7368 30.6325H46.7253V32.2787H46.1477V28.0044H46.6964L46.708 28.4376H46.7195ZM48.2964 29.5062C48.2964 29.1403 48.227 28.867 48.0884 28.686C47.9498 28.5012 47.7554 28.4087 47.505 28.4087C47.278 28.4087 47.0911 28.505 46.9448 28.6975C46.7985 28.8862 46.7253 29.1461 46.7253 29.4773V29.5351C46.7253 29.8701 46.7985 30.132 46.9448 30.3206C47.0911 30.5092 47.278 30.6036 47.505 30.6036C47.7438 30.6036 47.9344 30.5092 48.0769 30.3206C48.2232 30.132 48.2964 29.8605 48.2964 29.5062ZM52.6399 28.4723H51.5945V31.0079H50.9706V28.4723H49.9252V28.0044H52.6399V28.4723ZM55.6649 29.5177H55.3761C55.0295 29.5177 54.7618 29.5775 54.5732 29.6968C54.3884 29.8161 54.2959 29.974 54.2959 30.1704C54.2959 30.3128 54.3382 30.4265 54.423 30.5112C54.5115 30.5921 54.627 30.6325 54.7696 30.6325C55.0122 30.6325 55.2219 30.5497 55.3992 30.3841C55.5762 30.2146 55.6649 30.0087 55.6649 29.7661V29.5177ZM53.7299 30.1993C53.7299 29.8643 53.8703 29.5966 54.1515 29.3964C54.4364 29.1923 54.8447 29.0903 55.3761 29.0903H55.6649V29.0614C55.6649 28.8188 55.6147 28.6494 55.5147 28.5531C55.4183 28.4569 55.247 28.4087 55.0006 28.4087C54.6348 28.4087 54.2978 28.4954 53.9898 28.6687L53.9032 28.2066C54.2266 28.0333 54.5923 27.9467 55.0006 27.9467C55.4356 27.9467 55.7515 28.0353 55.9479 28.2124C56.1443 28.3856 56.2425 28.6629 56.2425 29.0441V30.1993C56.2425 30.4727 56.2713 30.7422 56.3291 31.0079H55.7804C55.7495 30.8385 55.7322 30.6845 55.7284 30.5459H55.7168C55.6089 30.7076 55.4587 30.8347 55.2663 30.9271C55.0775 31.0195 54.8638 31.0657 54.6252 31.0657C54.3517 31.0657 54.1342 30.9886 53.9725 30.8347C53.8108 30.6807 53.7299 30.4688 53.7299 30.1993ZM60.4796 31.0079H59.902V28.478H58.7064V29.5524C58.7064 30.1184 58.6159 30.5054 58.4349 30.7134C58.254 30.9175 57.9055 31.0348 57.3895 31.0657L57.3606 30.5921C57.5801 30.5805 57.7418 30.5439 57.8458 30.4823C57.9537 30.4208 58.0288 30.3128 58.071 30.1589C58.1172 30.0049 58.1403 29.7681 58.1403 29.4484V28.0044H60.4796V31.0079ZM64.7476 31.0079V28.0044H65.3079V31.0079H64.7476ZM61.8885 28.0044H62.4661V28.8824C62.6008 28.8555 62.7645 28.8419 62.9571 28.8419C63.396 28.8419 63.731 28.9382 63.9621 29.1307C64.1969 29.3194 64.3144 29.5793 64.3144 29.9105C64.3144 30.2995 64.1931 30.5901 63.9505 30.7827C63.7117 30.9713 63.3421 31.0657 62.8415 31.0657C62.5065 31.0657 62.1889 31.0368 61.8885 30.9791V28.0044ZM62.4661 29.3444V30.5574C62.6085 30.5883 62.7471 30.6036 62.882 30.6036C63.1784 30.6036 63.396 30.5478 63.5347 30.4361C63.6771 30.3206 63.7484 30.1453 63.7484 29.9105C63.7484 29.7179 63.6751 29.5697 63.5289 29.4657C63.3825 29.358 63.163 29.304 62.8704 29.304C62.7125 29.304 62.5777 29.3175 62.4661 29.3444Z" fill="#FFFFFF"></path></svg>
