<svg xmlns="http://www.w3.org/2000/svg" version="1.1" xmlns:xlink="http://www.w3.org/1999/xlink" width="154" height="24" viewBox="0 0 154 24" fill="none"><path fill-rule="evenodd" clip-rule="evenodd" d="M152.982 5.898L147.55 18.917C146.474 21.448 144.86 22.701 142.683 22.701C141.84 22.701 141.118 22.579 140.546 22.351C140.36 22.276 140.238 22.099 140.238 21.899V19.781C140.238 19.522 140.496 19.331 140.737 19.424C141.166 19.591 141.625 19.678 142.097 19.678C143.305 19.678 144.054 18.963 144.746 17.376C144.787 17.279 144.787 17.166 144.744 17.07L139.788 5.906C139.678 5.657 139.859 5.377 140.13 5.377H142.887C143.119 5.377 143.327 5.519 143.414 5.735L146.319 12.989C146.383 13.149 146.609 13.147 146.67 12.986L149.416 5.743C149.5 5.523 149.711 5.377 149.946 5.377H152.637C152.904 5.377 153.085 5.65 152.982 5.898ZM133.488 17.958C131.848 17.958 130.578 17.41 129.638 16.334C129.582 16.27 129.477 16.306 129.477 16.392V21.984C129.477 22.298 129.223 22.554 128.91 22.554H126.597C126.283 22.554 126.029 22.298 126.029 21.984V5.947C126.029 5.632 126.283 5.377 126.597 5.377H128.91C129.223 5.377 129.477 5.632 129.477 5.947V6.619C129.477 6.704 129.582 6.74 129.638 6.675C130.538 5.603 131.828 5.058 133.488 5.058C135.151 5.058 136.52 5.672 137.596 6.925C138.696 8.154 139.235 9.677 139.235 11.52C139.235 13.339 138.696 14.862 137.596 16.115C136.52 17.344 135.151 17.958 133.488 17.958ZM134.882 9.063C134.27 8.4 133.463 8.08 132.509 8.08C131.197 8.08 130.094 8.83 129.518 9.848C129.491 9.897 129.477 9.952 129.477 10.009V13.032C129.477 13.088 129.491 13.144 129.518 13.193C130.094 14.21 131.197 14.935 132.509 14.935C133.463 14.935 134.27 14.617 134.882 13.953C135.493 13.29 135.811 12.478 135.811 11.52C135.811 10.537 135.493 9.727 134.882 9.063ZM121.755 17.909C120.557 17.909 119.628 16.951 119.628 15.747C119.628 14.567 120.557 13.633 121.755 13.633C122.929 13.633 123.883 14.567 123.883 15.747C123.883 16.951 122.929 17.909 121.755 17.909ZM115.831 17.86C114.489 17.86 113.601 17.382 113.121 16.403C113.094 16.347 113.023 16.334 112.978 16.378C111.915 17.424 110.55 17.958 108.861 17.958C106.22 17.958 104.361 16.336 104.361 13.855C104.361 12.552 104.826 11.545 105.78 10.857C106.734 10.169 107.859 9.825 109.179 9.825C110.549 9.825 111.722 10.07 112.701 10.586V10.218C112.701 8.67 111.625 7.908 109.473 7.908C108.464 7.908 107.483 8.117 106.557 8.534C106.192 8.698 105.78 8.423 105.78 8.021V6.509C105.78 6.209 105.96 5.941 106.233 5.82C107.384 5.306 108.73 5.058 110.304 5.058C112.04 5.058 113.458 5.476 114.51 6.335C115.587 7.195 116.124 8.375 116.124 9.874V14.026C116.124 14.641 116.418 14.961 116.98 14.961C117.157 14.961 117.315 14.943 117.45 14.907C117.57 14.876 117.689 14.958 117.689 15.082V16.919C117.689 17.219 117.513 17.49 117.239 17.61C116.858 17.777 116.392 17.86 115.831 17.86ZM112.701 13.211C112.701 12.944 112.554 12.696 112.318 12.574C111.696 12.253 110.985 12.085 110.157 12.085C108.69 12.085 107.761 12.675 107.761 13.683C107.761 14.764 108.666 15.28 109.938 15.28C111.037 15.28 111.909 14.929 112.537 14.225C112.648 14.101 112.701 13.935 112.701 13.768V13.211ZM100.1 8.277C99.888 8.277 99.715 8.45 99.715 8.665V17.252C99.715 17.465 99.542 17.639 99.33 17.639H96.652C96.44 17.639 96.267 17.465 96.267 17.252V8.665C96.267 8.45 96.094 8.277 95.881 8.277H92.838C92.625 8.277 92.452 8.103 92.452 7.889V5.764C92.452 5.55 92.625 5.377 92.838 5.377H103.193C103.406 5.377 103.579 5.55 103.579 5.764V7.889C103.579 8.103 103.406 8.277 103.193 8.277H100.1ZM90.274 17.86C88.933 17.86 88.044 17.382 87.565 16.403C87.537 16.347 87.466 16.334 87.422 16.378C86.358 17.424 84.993 17.958 83.305 17.958C80.664 17.958 78.806 16.336 78.806 13.855C78.806 12.552 79.27 11.545 80.224 10.857C81.178 10.169 82.302 9.825 83.623 9.825C84.993 9.825 86.167 10.07 87.145 10.586V10.218C87.145 8.67 86.068 7.908 83.916 7.908C82.907 7.908 81.928 8.117 81.001 8.534C80.636 8.698 80.224 8.423 80.224 8.021V6.509C80.224 6.209 80.404 5.941 80.677 5.82C81.828 5.306 83.174 5.058 84.748 5.058C86.484 5.058 87.903 5.476 88.954 6.335C90.03 7.195 90.568 8.375 90.568 9.874V14.026C90.568 14.641 90.861 14.961 91.424 14.961C91.6 14.961 91.758 14.943 91.894 14.907C92.015 14.876 92.133 14.958 92.133 15.082V16.919C92.133 17.219 91.957 17.49 91.683 17.61C91.303 17.777 90.836 17.86 90.274 17.86ZM87.145 13.211C87.145 12.944 86.999 12.696 86.762 12.574C86.14 12.253 85.429 12.085 84.601 12.085C83.134 12.085 82.205 12.675 82.205 13.683C82.205 14.764 83.11 15.28 84.381 15.28C85.48 15.28 86.353 14.929 86.981 14.225C87.092 14.101 87.145 13.935 87.145 13.768V13.211ZM73.61 17.639C73.4 17.639 73.229 17.468 73.229 17.257V8.66C73.229 8.448 73.058 8.277 72.848 8.277H69.833C69.627 8.277 69.459 8.442 69.452 8.649L69.415 9.997C69.341 11.692 69.268 12.823 68.852 14.297C68.266 16.361 67.091 17.664 64.67 17.737C64.244 17.737 63.894 17.698 63.632 17.62C63.475 17.574 63.374 17.421 63.374 17.257V15.156C63.374 14.931 63.565 14.756 63.787 14.776C63.882 14.785 63.981 14.788 64.084 14.788C64.891 14.788 65.404 14.322 65.673 13.216C65.966 12.06 66.039 11.029 66.064 8.99L66.13 5.752C66.134 5.543 66.304 5.377 66.511 5.377H76.297C76.507 5.377 76.678 5.548 76.678 5.76V17.257C76.678 17.468 76.507 17.639 76.297 17.639H73.61ZM58.369 17.639C58.162 17.639 57.993 17.47 57.993 17.26V8.656C57.993 8.447 57.824 8.277 57.616 8.277H53.504C53.296 8.277 53.128 8.447 53.128 8.656V17.26C53.128 17.47 52.959 17.639 52.751 17.639H50.056C49.848 17.639 49.679 17.47 49.679 17.26V5.756C49.679 5.546 49.848 5.377 50.056 5.377H61.065C61.273 5.377 61.441 5.546 61.441 5.756V17.26C61.441 17.47 61.273 17.639 61.065 17.639H58.369ZM41.632 17.958C39.993 17.958 38.723 17.41 37.784 16.334C37.727 16.27 37.622 16.306 37.622 16.392V21.984C37.622 22.298 37.368 22.554 37.055 22.554H34.741C34.428 22.554 34.174 22.298 34.174 21.984V5.947C34.174 5.632 34.428 5.377 34.741 5.377H37.055C37.368 5.377 37.622 5.632 37.622 5.947V6.619C37.622 6.704 37.727 6.74 37.782 6.675C38.683 5.603 39.973 5.058 41.632 5.058C43.296 5.058 44.665 5.672 45.741 6.925C46.841 8.154 47.379 9.677 47.379 11.52C47.379 13.339 46.841 14.862 45.741 16.115C44.665 17.344 43.296 17.958 41.632 17.958ZM43.027 9.063C42.415 8.4 41.608 8.08 40.654 8.08C39.342 8.08 38.238 8.83 37.663 9.848C37.635 9.897 37.622 9.952 37.622 10.009V13.032C37.622 13.088 37.635 13.144 37.663 13.193C38.238 14.21 39.342 14.935 40.654 14.935C41.608 14.935 42.415 14.617 43.027 13.953C43.638 13.29 43.956 12.478 43.956 11.52C43.956 10.537 43.638 9.727 43.027 9.063ZM30.162 17.86C28.821 17.86 27.932 17.382 27.454 16.403C27.425 16.347 27.354 16.334 27.309 16.378C26.247 17.424 24.881 17.958 23.193 17.958C22.448 17.958 21.768 17.825 21.171 17.583C19.098 20.919 15.419 23.016 11.452 23.016C5.138 23.016 0 17.853 0 11.508C0 5.163 5.138 0 11.452 0C15.605 0 19.248 2.233 21.256 5.567C22.225 5.245 23.412 5.058 24.636 5.058C26.372 5.058 27.791 5.475 28.842 6.335C29.918 7.195 30.456 8.375 30.456 9.874V14.026C30.456 14.641 30.75 14.961 31.312 14.961C31.489 14.961 31.647 14.943 31.782 14.907C31.902 14.876 32.021 14.958 32.021 15.082V16.919C32.021 17.219 31.844 17.49 31.571 17.61C31.191 17.777 30.724 17.86 30.162 17.86ZM11.452 1.281C5.84 1.281 1.274 5.869 1.274 11.508C1.274 17.148 5.84 21.735 11.452 21.735C14.967 21.735 18.227 19.884 20.074 16.935C19.208 16.216 18.694 15.155 18.694 13.855C18.694 12.552 19.158 11.545 20.112 10.857C20.549 10.542 21.024 10.302 21.535 10.131C20.864 5.141 16.599 1.281 11.452 1.281ZM27.032 10.218C27.032 8.67 25.956 7.908 23.804 7.908C23.346 7.908 22.85 7.965 22.378 8.058C22.561 8.642 22.698 9.246 22.786 9.866C23.022 9.841 23.262 9.825 23.511 9.825C24.881 9.825 26.055 10.07 27.032 10.586V10.218ZM27.032 13.211C27.032 12.944 26.887 12.696 26.65 12.574C26.029 12.253 25.317 12.085 24.489 12.085C23.022 12.085 22.092 12.675 22.092 13.683C22.092 14.764 22.997 15.28 24.269 15.28C25.368 15.28 26.241 14.929 26.869 14.225C26.98 14.101 27.032 13.935 27.032 13.768V13.211ZM17.275 13.977C17.275 15.133 16.712 16.091 15.587 16.852C14.486 17.59 13.019 17.958 11.21 17.958C9.452 17.958 7.998 17.694 6.812 17.183C6.604 17.094 6.466 16.894 6.466 16.667V14.811C6.466 14.544 6.737 14.364 6.98 14.47C8.117 14.966 9.364 15.206 10.72 15.206C12.579 15.206 13.656 14.691 13.656 13.781C13.656 12.97 12.946 12.577 11.503 12.577H9.481C9.274 12.577 9.107 12.409 9.107 12.201V10.446C9.107 10.239 9.274 10.07 9.481 10.07H11.503C12.677 10.07 13.264 9.702 13.264 8.99C13.264 8.203 12.432 7.81 10.77 7.81C9.49 7.81 8.337 8.009 7.309 8.422C7.068 8.518 6.808 8.338 6.808 8.078V6.307C6.808 6.077 6.95 5.873 7.162 5.787C8.351 5.301 9.818 5.058 11.528 5.058C13.019 5.058 14.267 5.377 15.269 6.016C16.272 6.655 16.785 7.466 16.785 8.424C16.785 9.679 16.279 10.531 15.268 10.962C15.191 10.994 15.194 11.109 15.273 11.139C16.421 11.579 17.275 12.532 17.275 13.977Z" fill="#FFFFFF"></path></svg>
